<svg xmlns="http://www.w3.org/2000/svg" width="1200" height="630" viewBox="0 0 1200 630">
<rect width="1200" height="630" fill="#163e30"/>
<g fill="none" stroke="#6b9179" stroke-width="3"><rect x="822" y="104" width="282" height="390" rx="20"/><rect x="850" y="134" width="226" height="102" rx="8"/><circle cx="902" cy="185" r="29"/><circle cx="1022" cy="185" r="29"/><rect x="850" y="256" width="226" height="102" rx="8"/><path d="M873 285h150m-150 20h150m-150 20h100"/><rect x="850" y="378" width="226" height="86" rx="8"/></g>
<g fill="#d6f07a"><circle cx="1020" cy="421" r="7"/><circle cx="1045" cy="421" r="7"/><path d="M75 137V75h19l24 34 24-34h19v62h-19v-34l-24 31-24-31v34z"/></g>
<g font-family="Helvetica,Arial,sans-serif"><text x="183" y="127" font-size="64" font-weight="700" fill="#f5f7ed">mercado</text><text x="74" y="266" font-size="61" font-weight="700" fill="#f5f7ed">Bitcoin mining.</text><text x="74" y="338" font-size="61" font-weight="700" fill="#f5f7ed">Local AI &amp; servers.</text><text x="76" y="402" font-size="27" fill="#c6d6ca">Compare hardware. Request a quote.</text><text x="76" y="541" font-size="24" fill="#d6f07a">mercado.bittrees.org</text><text x="1104" y="541" font-size="21" text-anchor="end" fill="#c6d6ca">Bittrees Technology</text></g></svg>